:SAMPLES-PER-SECOND 30
:FRAME-RANGE 1-3549
:FULLY-SPECIFIED
:DEGREES
444
root  -64.7847 38.8649 -56.0329 5.2168 -20.0557 -0.881409
RightUpLeg  -21.1416 0.557947 -3.80848
RightLeg  42.1917 -2.52098 -2.73095
RightFoot  -15.8497 0.24303 8.8943
RightToes  1.218e-010 1.26228e-014 -6.01869e-014
Spine  2.17664 1.4188 0.443466
Spine1  -0.21751 2.06506 -3.67123
HEad  -8.60174 6.65609 -3.72925
LeftShoulder1  0.4096 -7.35956 4.98985
LeftArm  -52.1476 -40.9834 -3.68819
LeftForeArm  45.4083 -57.5735 -13.6642
LeftHand  0.285756 7.43453 17.0396
RightShoulder  0.454772 6.61534 -4.3405
RightArm  -60.3913 51.8765 4.63999
RightForeArm  60.7364 46.6813 7.75677
RightHand  0.834086 -8.48871 -30.5415
LeftUpLeg  -22.1559 -1.33767 -0.0927814
LeftLeg  23.7438 3.10321 1.84743
LeftFoot  -9.80185 0.104113 -3.37397
LeftToes  -1.43952e-010 7.51141e-011 -1.22592e-011
445
root  -65.0087 38.5475 -55.4071 5.32935 -19.8198 -1.72223
RightUpLeg  -22.4007 3.06218 -2.63973
RightLeg  37.5896 -2.83562 -2.60005
RightFoot  -18.5601 0.512219 10.0974
RightToes  1.218e-010 1.26228e-014 -6.01869e-014
Spine  3.28225 1.56507 1.48744
Spine1  -1.19139 2.30347 -3.72805
HEad  -10.2426 6.19527 -4.16374
LeftShoulder1  0.288718 -8.34034 6.55014
LeftArm  -60.4968 -39.9972 1.44022
LeftForeArm  46.8738 -59.9104 -15.0506
LeftHand  0.239849 7.27398 15.7827
RightShoulder  0.299423 6.88675 -6.2274
RightArm  -71.672 51.4957 -2.84258
RightForeArm  64.3667 51.2327 9.21177
RightHand  0.851731 -8.71596 -29.1862
LeftUpLeg  -23.2135 -1.13444 0.60011
LeftLeg  28.3666 2.66811 1.92318
LeftFoot  -12.3335 0.0549285 -2.19803
LeftToes  -1.43952e-010 7.51141e-011 -1.22592e-011
446
root  -65.2819 37.9305 -54.8087 4.65802 -20.1295 -2.0752
RightUpLeg  -24.2079 6.41985 -2.32036
RightLeg  37.3722 -1.89742 -1.81369
RightFoot  -19.8028 0.670287 10.8528
RightToes  1.218e-010 1.26228e-014 -6.01869e-014
Spine  4.29631 1.76283 1.80361
Spine1  -1.03455 2.62807 -3.99797
HEad  -12.5581 6.17997 -4.21795
LeftShoulder1  0.10993 -8.83759 8.35481
LeftArm  -68.6647 -38.3584 6.37375
LeftForeArm  50.1412 -62.9773 -17.1014
LeftHand  0.355952 8.41278 14.4732
RightShoulder  0.142569 6.92138 -8.00268
RightArm  -81.3126 50.103 -8.87319
RightForeArm  68.9255 57.7252 11.9397
RightHand  1.2046 -10.3712 -27.636
LeftUpLeg  -24.5166 -0.113013 0.816469
LeftLeg  34.5939 2.18861 2.00457
LeftFoot  -14.4513 0.0739639 -0.468791
LeftToes  -1.43952e-010 7.51141e-011 -1.22592e-011
447
root  -65.6253 36.957 -54.2105 3.01672 -19.9387 -1.76343
RightUpLeg  -25.9448 7.78326 -2.29276
RightLeg  43.0361 0.259247 -0.0305618
RightFoot  -20.5791 0.822525 11.8766
RightToes  1.218e-010 1.26228e-014 -6.01869e-014
Spine  5.12899 1.6448 1.06689
Spine1  -0.234624 2.55088 -4.31685
HEad  -14.3602 6.23339 -3.80408
LeftShoulder1  -0.163964 -8.69408 10.9601
LeftArm  -76.0049 -36.6041 9.31053
LeftForeArm  54.6709 -65.5506 -19.0383
LeftHand  0.319 8.32986 13.4914
RightShoulder  -0.0144039 6.71184 -9.77712
RightArm  -89.9772 48.8539 -12.1476
RightForeArm  76.104 65.1061 16.5142
RightHand  1.38201 -11.4591 -26.1032
LeftUpLeg  -25.8724 0.67612 0.586377
LeftLeg  42.7885 1.42106 1.8329
LeftFoot  -18.5001 0.121726 0.17164
LeftToes  -1.43952e-010 7.51141e-011 -1.22592e-011
448
root  -65.9593 35.9155 -53.4834 0.513794 -18.4642 -1.01715
RightUpLeg  -25.5751 6.80163 -2.09619
RightLeg  50.0883 -0.438957 -0.911365
RightFoot  -22.5577 0.49018 6.54531
RightToes  1.218e-010 1.26228e-014 -6.01869e-014
Spine  5.79298 1.42281 0.0719678
Spine1  0.553824 2.13007 -4.02646
HEad  -14.7403 5.8978 -3.58341
LeftShoulder1  -0.44051 -8.34311 13.7284
LeftArm  -80.6881 -35.5237 10.0308
LeftForeArm  58.042 -68.6881 -22.4162
LeftHand  0.421214 9.25544 13.3985
RightShoulder  -0.198968 5.87337 -12.1272
RightArm  -94.9326 46.7751 -13.7499
RightForeArm  83.1511 72.6297 25.5456
RightHand  1.59126 -12.6315 -25.211
LeftUpLeg  -25.7633 0.106909 -0.108608
LeftLeg  50.1316 0.754003 1.44953
LeftFoot  -22.9955 0.137065 -0.00984235
LeftToes  -1.43952e-010 7.51141e-011 -1.22592e-011
449
root  -66.2887 35.1134 -52.7431 -1.71625 -16.7867 -0.266296
RightUpLeg  -24.1697 6.29867 -2.29376
RightLeg  55.5701 -1.04446 -2.0557
RightFoot  -26.822 0.732199 6.72209
RightToes  1.218e-010 1.26228e-014 -6.01869e-014
Spine  6.50493 1.40746 -0.713861
Spine1  0.591223 1.90374 -3.88743
HEad  -15.0599 5.32093 -3.45645
LeftShoulder1  -0.603779 -7.43559 15.834
LeftArm  -84.9248 -35.594 10.3151
LeftForeArm  61.5811 -71.7659 -27.0792
LeftHand  0.508523 10.1701 13.023
RightShoulder  -0.348724 4.62869 -14.7293
RightArm  -98.1208 44.2473 -15.3104
RightForeArm  98.5502 78.5405 42.3383
RightHand  1.90078 -14.3417 -24.3566
LeftUpLeg  -24.6599 -1.24527 -0.9566
LeftLeg  55.2014 0.684846 1.60157
LeftFoot  -26.5549 0.171859 0.0912697
LeftToes  -1.43952e-010 7.51141e-011 -1.22592e-011
450
root  -66.569 35.1565 -51.9574 -2.30566 -15.988 0.328186
RightUpLeg  -22.0491 6.43909 -2.64537
RightLeg  55.773 -1.35701 -2.56484
RightFoot  -27.9897 0.836667 7.01245
RightToes  1.218e-010 1.26228e-014 -6.01869e-014
Spine  5.39839 2.047 -1.39547
Spine1  0.537944 2.36762 -3.70184
HEad  -14.962 4.72978 -3.51109
LeftShoulder1  -0.648279 -7.85057 16.0508
LeftArm  -87.6666 -35.8875 10.8927
LeftForeArm  69.3592 -75.3139 -35.0119
LeftHand  0.570909 11.0295 12.3923
RightShoulder  -0.387124 3.82482 -15.9515
RightArm  -99.7044 42.7678 -16.5906
RightForeArm  127.838 81.7955 71.5185
RightHand  2.09565 -15.342 -24.1314
LeftUpLeg  -22.4481 -1.97261 -1.70292
LeftLeg  54.7612 0.860249 1.84847
LeftFoot  -27.5865 0.131042 -0.244585
LeftToes  -1.43952e-010 7.51141e-011 -1.22592e-011
451
root  -66.736 36.419 -51.226 -1.66138 -14.4049 0.559448
RightUpLeg  -17.9886 5.20497 -2.94297
RightLeg  48.7636 -1.78714 -2.52057
RightFoot  -24.1959 0.686006 7.53982
RightToes  1.218e-010 1.26228e-014 -6.01869e-014
Spine  3.9739 1.81063 -1.82957
Spine1  -0.554726 2.02788 -3.15921
HEad  -14.252 4.46165 -2.9715
LeftShoulder1  -0.55918 -7.81695 15.1548
LeftArm  -87.9279 -36.8566 9.84385
LeftForeArm  87.187 -79.3255 -53.1073
LeftHand  0.602022 11.8018 11.5357
RightShoulder  -0.337242 3.66883 -15.2766
RightArm  -98.3798 43.3386 -15.29
RightForeArm  170.222 81.3405 115.511
RightHand  2.17178 -16.4916 -22.4851
LeftUpLeg  -18.5846 -2.88603 -1.97524
LeftLeg  47.3491 0.433589 0.96027
LeftFoot  -23.2494 0.0755748 -0.613765
LeftToes  -1.43952e-010 7.51141e-011 -1.22592e-011
452
root  -66.7633 38.6361 -50.6675 -0.123535 -12.8354 -0.192505
RightUpLeg  -13.5476 2.87617 -2.92797
RightLeg  37.2842 -0.445289 -0.625268
RightFoot  -13.2058 0.0615945 9.28693
RightToes  1.218e-010 1.26228e-014 -6.01869e-014
Spine  2.36239 1.37149 -0.649809
Spine1  -1.2115 1.67517 -2.61318
HEad  -14.3471 3.88505 -3.0472
LeftShoulder1  -0.351433 -7.72836 13.0451
LeftArm  -86.3749 -38.4525 7.08192
LeftForeArm  112.138 -81.2442 -77.7708
LeftHand  0.629926 12.4581 10.9737
RightShoulder  -0.198078 3.58267 -13.0257
RightArm  -94.2858 45.2876 -11.6872
RightForeArm  -167.605 78.0425 139.375
RightHand  2.2129 -16.9869 -21.9493
LeftUpLeg  -14.1043 -2.65505 -0.857667
LeftLeg  35.2806 -1.65166 -0.880226
LeftFoot  -11.7263 0.0618113 -2.5319
LeftToes  -1.43952e-010 7.51141e-011 -1.22592e-011
